#!OML:ASF I:\Actors\actors\Patient Classification 2\Patient 1\Session 1\actor1.ASF
:FULLY-SPECIFIED
:DEGREES
395
root -0.790222 18.7705 5.22171 3.83221 0.492681 -3.7118
lowerback 6.91646 3.63815 -6.23662
upperback 1.57265 4.25863 -4.65887
thorax -2.33851 2.14172 -1.71925
lowerneck -12.2568 0.643275 -2.11958
upperneck 36.6943 1.4673 0.97
head 14.7051 0.485689 1.01583
rclavicle -1.03368e-014 5.88403e-014
rhumerus 22.3531 64.7289 -25.6511
rradius 106.689
rwrist -38.538
rhand 2.14631 -51.7606
rfingers 7.12502
rthumb 27.6445 -79.7494
lclavicle -1.03368e-014 5.88403e-014
lhumerus 13.605 -41.6794 51.414
lradius 82.8447
lwrist 41.2625
lhand 1.35992 -24.4553
lfingers 7.12502
lthumb 26.8923 3.65169
rfemur 0 0 0
rtibia 0
rfoot 0 0
rtoes 0
lfemur -9.08417 -8.2419 -9.4018
ltibia 22.5176
lfoot -22.8537 15.778
ltoes -54.5422
396
root -0.79004 18.7706 5.21997 3.80553 0.316591 -3.68353
lowerback 6.8683 3.58668 -6.26907
upperback 1.57716 4.19243 -4.68089
thorax -2.30646 2.10836 -1.71426
lowerneck -12.2092 0.795339 -1.78152
upperneck 36.6614 1.6911 0.703084
head 14.6808 0.590773 0.878895
rclavicle 1.39149e-014 3.02153e-014
rhumerus 23.5843 63.8769 -25.3958
rradius 107.312
rwrist -39.6247
rhand 2.88791 -50.8566
rfingers 7.12502
rthumb 28.3534 -78.7297
lclavicle 1.39149e-014 3.02153e-014
lhumerus 13.2879 -41.5997 51.4405
lradius 82.872
lwrist 41.2598
lhand 1.33851 -24.277
lfingers 7.12502
lthumb 26.8718 3.83316
rfemur 0 0 0
rtibia 0
rfoot 0 0
rtoes 0
lfemur -9.01655 -8.13132 -9.44959
ltibia 22.5264
lfoot -22.853 15.7559
ltoes -54.4505
397
root -0.790327 18.7705 5.21802 3.76571 0.100716 -3.66336
lowerback 6.80494 3.56664 -6.29342
upperback 1.60519 4.17163 -4.70855
thorax -2.24126 2.0967 -1.72187
lowerneck -12.1762 0.903141 -1.49868
upperneck 36.5991 1.83963 0.502311
head 14.6472 0.665493 0.767387
rclavicle -6.52014e-014 2.54444e-014
rhumerus 24.0099 62.6856 -26.2768
rradius 107.721
rwrist -39.2482
rhand -0.0912917 -49.8791
rfingers 7.12502
rthumb 25.5029 -78.1924
lclavicle -6.52014e-014 2.54444e-014
lhumerus 13.1248 -41.5739 51.4058
lradius 82.83
lwrist 41.2108
lhand 1.42787 -24.173
lfingers 7.12502
lthumb 26.9573 3.92396
rfemur 0 0 0
rtibia 0
rfoot 0 0
rtoes 0
lfemur -8.93987 -7.94427 -9.48627
ltibia 22.5564
lfoot -22.8415 15.6949
ltoes -54.352
398
root -0.793808 18.7717 5.21242 3.78464 -0.111918 -3.81602
lowerback 6.75479 3.56646 -6.11441
upperback 1.57983 4.18641 -4.74543
thorax -2.2247 2.10345 -1.85719
lowerneck -12.175 0.951484 -1.33092
upperneck 36.6075 1.86841 0.48377
head 14.6524 0.697068 0.734171
rclavicle -2.74323e-014 -3.02153e-014
rhumerus 23.2915 60.7899 -28.7193
rradius 107.145
rwrist -33.7084
rhand -0.722201 -47.9597
rfingers 7.12502
rthumb 24.8985 -76.358
lclavicle -2.74323e-014 -3.02153e-014
lhumerus 13.1547 -41.6871 51.2556
lradius 82.707
lwrist 41.1936
lhand 1.59611 -24.0767
lfingers 7.12502
lthumb 27.1183 3.99529
rfemur 0 0 0
rtibia 0
rfoot 0 0
rtoes 0
lfemur -8.93364 -7.76647 -9.30245
ltibia 22.5687
lfoot -22.8068 15.7027
ltoes -54.3552
399
root -0.798891 18.7725 5.20644 3.81791 -0.318607 -3.98552
lowerback 6.74662 3.5931 -5.90563
upperback 1.49241 4.22978 -4.79828
thorax -2.29289 2.126 -2.03397
lowerneck -12.1656 0.953767 -1.21833
upperneck 36.7003 1.82537 0.525838
head 14.6952 0.69809 0.725536
rclavicle 1.78906e-014 6.36111e-015
rhumerus 22.2226 58.9662 -31.4532
rradius 105.957
rwrist -25.6884
rhand -4.25069 -45.5082
rfingers 7.12502
rthumb 21.5132 -74.3335
lclavicle 1.78906e-014 6.36111e-015
lhumerus 13.2254 -41.9124 51.1558
lradius 82.5629
lwrist 41.1653
lhand 1.74881 -23.8678
lfingers 7.12502
lthumb 27.2643 4.18139
rfemur 0 0 0
rtibia 0
rfoot 0 0
rtoes 0
lfemur -8.92674 -7.67545 -9.1019
ltibia 22.5602
lfoot -22.7976 15.8283
ltoes -54.4205
400
root -0.799449 18.7708 5.2085 3.76627 -0.538718 -3.87423
lowerback 6.70221 3.6527 -5.94046
upperback 1.46068 4.30502 -4.92664
thorax -2.29442 2.16373 -2.15341
lowerneck -12.2535 0.911081 -1.25688
upperneck 36.8527 1.71184 0.702194
head 14.7864 0.665785 0.79025
rclavicle 5.60573e-014 -5.725e-014
rhumerus 21.2544 57.0649 -33.8911
rradius 104.297
rwrist -15.9504
rhand -8.00556 -42.9338
rfingers 7.12502
rthumb 17.9035 -72.1297
lclavicle 5.60573e-014 -5.725e-014
lhumerus 13.3572 -42.1462 51.0941
lradius 82.3914
lwrist 41.0969
lhand 1.82801 -23.7193
lfingers 7.12502
lthumb 27.3401 4.31798
rfemur 0 0 0
rtibia 0
rfoot 0 0
rtoes 0
lfemur -8.76986 -7.77758 -9.27762
ltibia 22.5469
lfoot -22.9673 16.0757
ltoes -54.4296
401
root -0.798489 18.7693 5.21146 3.7218 -0.672005 -3.72988
lowerback 6.63916 3.70216 -6.02726
upperback 1.44231 4.36595 -5.06202
thorax -2.27458 2.1942 -2.24832
lowerneck -12.3759 0.839725 -1.32377
upperneck 36.9995 1.54849 0.918775
head 14.8839 0.614131 0.86955
rclavicle -3.4191e-014 3.81667e-014
rhumerus 20.5786 55.5859 -35.5309
rradius 102.081
rwrist -4.19355
rhand -11.7723 -41.4866
rfingers 7.12502
rthumb 14.2764 -70.9758
lclavicle -3.4191e-014 3.81667e-014
lhumerus 13.5687 -42.358 51.0307
lradius 82.2072
lwrist 40.9999
lhand 1.84393 -23.6861
lfingers 7.12502
lthumb 27.3553 4.34877
rfemur 0 0 0
rtibia 0
rfoot 0 0
rtoes 0
lfemur -8.6299 -8.02542 -9.48986
ltibia 22.5169
lfoot -23.2055 16.3468
ltoes -54.313
402
root -0.798544 18.769 5.21146 3.73067 -0.655828 -3.71011
lowerback 6.60544 3.73935 -6.07019
upperback 1.39188 4.41049 -5.11752
thorax -2.30732 2.21741 -2.28656
lowerneck -12.4196 0.767927 -1.29697
upperneck 37.0686 1.39987 1.01563
head 14.9288 0.567406 0.883091
rclavicle 3.10104e-014 -1.90833e-014
rhumerus 19.8989 54.375 -36.5795
rradius 100.469
rwrist 5.99465
rhand -6.46771 -41.1956
rfingers 7.12502
rthumb 19.3827 -70.2496
lclavicle 3.10104e-014 -1.90833e-014
lhumerus 13.7906 -42.5504 51.092
lradius 82.0883
lwrist 40.8491
lhand 1.92165 -23.7363
lfingers 7.12502
lthumb 27.4297 4.2868
rfemur 0 0 0
rtibia 0
rfoot 0 0
rtoes 0
lfemur -8.61407 -8.12172 -9.51437
ltibia 22.4737
lfoot -23.2901 16.4223
ltoes -54.2339
403
root -0.798869 18.7687 5.21198 3.73529 -0.505907 -3.6975
lowerback 6.52103 3.7677 -6.15906
upperback 1.42858 4.45353 -5.11184
thorax -2.22946 2.2379 -2.22789
lowerneck -12.466 0.67964 -1.26836
upperneck 36.955 1.24595 1.04862
head 14.8873 0.512295 0.866505
rclavicle 7.55382e-015 4.13472e-014
rhumerus 19.8656 54.6769 -36.1469
rradius 99.7221
rwrist 10.0472
rhand -5.27243 -42.8286
rfingers 7.12502
rthumb 20.5316 -71.7629
lclavicle 7.55382e-015 4.13472e-014
lhumerus 14.1357 -42.6483 51.1436
lradius 82.0864
lwrist 40.7979
lhand 2.02617 -23.842
lfingers 7.12502
lthumb 27.5296 4.16524
rfemur 0 0 0
rtibia 0
rfoot 0 0
rtoes 0
lfemur -8.65672 -8.11448 -9.51114
ltibia 22.4603
lfoot -23.2659 16.3158
ltoes -54.2383
404
root -0.800542 18.7692 5.21308 3.73706 -0.24493 -3.68776
lowerback 6.40668 3.76808 -6.33066
upperback 1.53782 4.46436 -5.03297
thorax -2.07135 2.2406 -2.03935
lowerneck -12.4899 0.571206 -1.24633
upperneck 36.6386 1.09067 0.995283
head 14.7447 0.44559 0.812306
rclavicle -3.29983e-014 3.18055e-015
rhumerus 20.9815 56.5134 -33.8957
rradius 100.433
rwrist 6.08667
rhand -5.45678 -45.7797
rfingers 7.12502
rthumb 20.3545 -74.733
lclavicle -3.29983e-014 3.18055e-015
lhumerus 14.4626 -42.6377 51.191
lradius 82.21
lwrist 40.8914
lhand 1.94949 -23.9067
lfingers 7.12502
lthumb 27.4563 4.11217
rfemur 0 0 0
rtibia 0
rfoot 0 0
rtoes 0
lfemur -8.74973 -8.21219 -9.49294
ltibia 22.4885
lfoot -23.2284 16.244
ltoes -54.3092
405
root -0.802821 18.7712 5.2146 3.7504 0.0826917 -3.75898
lowerback 6.3714 3.71408 -6.5824
upperback 1.60478 4.38944 -4.8047
thorax -2.0176 2.20223 -1.6528
lowerneck -12.4766 0.510802 -1.25355
upperneck 36.3305 1.06172 0.814739
head 14.5979 0.411063 0.730995
rclavicle -7.95139e-016 -5.725e-014
rhumerus 23.4167 58.9688 -30.0825
rradius 101.615
rwrist 1.19063
rhand -3.72889 -47.774
rfingers 7.12502
rthumb 22.0143 -76.5411
lclavicle -7.95139e-016 -5.725e-014
lhumerus 14.3916 -42.5222 51.5539
lradius 82.3445
lwrist 40.9264
lhand 1.68093 -23.9984
lfingers 7.12502
lthumb 27.1994 4.0609
rfemur 0 0 0
rtibia 0
rfoot 0 0
rtoes 0
lfemur -8.89263 -8.33494 -9.37368
ltibia 22.5338
lfoot -23.0852 16.2147
ltoes -54.4997
406
root -0.805518 18.7726 5.21693 3.77662 0.409702 -3.91021
lowerback 6.38547 3.60126 -6.89253
upperback 1.62082 4.22631 -4.44195
thorax -2.05475 2.12214 -1.09359
lowerneck -12.4521 0.550522 -1.28048
upperneck 36.1285 1.23251 0.514007
head 14.4983 0.441923 0.636689
rclavicle 6.36111e-015 -3.65764e-014
rhumerus 27.4968 61.7004 -24.9011
rradius 103.165
rwrist -3.55814
rhand -2.66745 -46.4629
rfingers 7.12502
rthumb 23.0331 -75.1065
lclavicle 6.36111e-015 -3.65764e-014
lhumerus 13.8829 -42.2663 52.2725
lradius 82.4093
lwrist 40.8205
lhand 1.42465 -24.1258
lfingers 7.12502
lthumb 26.9542 3.97163
rfemur 0 0 0
rtibia 0
rfoot 0 0
rtoes 0
lfemur -9.04901 -8.47582 -9.16207
ltibia 22.5855
lfoot -22.936 16.1227
ltoes -54.6161
407
root -0.808162 18.7718 5.22035 3.80498 0.668092 -4.00452
lowerback 6.3897 3.46099 -7.23791
upperback 1.60893 4.02277 -4.11751
thorax -2.10921 2.02326 -0.551629
lowerneck -12.3265 0.66438 -1.16398
upperneck 35.9249 1.50997 0.101085
head 14.3779 0.522935 0.487324
rclavicle 6.75868e-015 -6.36111e-015
rhumerus 32.4373 63.9495 -19.4947
rradius 104.782
rwrist -6.74017
rhand -0.16973 -46.3712
rfingers 7.12502
rthumb 25.4278 -74.6952
lclavicle 6.75868e-015 -6.36111e-015
lhumerus 13.1898 -41.9404 53.0458
lradius 82.414
lwrist 40.6936
lhand 1.28408 -24.181
lfingers 7.12502
lthumb 26.8197 3.93715
rfemur 0 0 0
rtibia 0
rfoot 0 0
rtoes 0
lfemur -9.17329 -8.59609 -9.02059
ltibia 22.6342
lfoot -22.8939 15.9966
ltoes -54.6363
408
root -0.810634 18.7704 5.22336 3.80793 0.820904 -4.05337
lowerback 6.38422 3.32286 -7.458
upperback 1.59602 3.82827 -3.95226
thorax -2.13609 1.92831 -0.24263
lowerneck -12.1482 0.77843 -0.907966
upperneck 35.7507 1.72833 -0.262708
head 14.2626 0.603662 0.324546
rclavicle -7.55382e-015 2.22639e-014
rhumerus 36.9919 65.605 -15.1234
rradius 106.34
rwrist -8.49252
rhand -2.46838 -47.1197
rfingers 7.12502
rthumb 23.2241 -75.7394
lclavicle -7.55382e-015 2.22639e-014
lhumerus 12.6353 -41.698 53.4936
lradius 82.333
lwrist 40.6658
lhand 1.12817 -24.0762
lfingers 7.12502
lthumb 26.6705 4.06479
rfemur 0 0 0
rtibia 0
rfoot 0 0
rtoes 0
lfemur -9.22585 -8.65994 -8.94316
ltibia 22.6598
lfoot -22.9124 15.9492
ltoes -54.7278
409
root -0.814816 18.7701 5.22416 3.76742 0.821023 -4.05762
lowerback 6.38716 3.2245 -7.63337
upperback 1.5945 3.68699 -3.8901
thorax -2.14672 1.85903 -0.0694961
lowerneck -12.0332 0.863048 -0.707273
upperneck 35.7119 1.86092 -0.455006
head 14.2231 0.661272 0.229638
rclavicle -3.18055e-015 -1.90833e-014
rhumerus 38.5436 65.772 -14.679
rradius 107.069
rwrist -8.53832
rhand -2.63271 -46.6467
rfingers 7.12502
rthumb 23.0664 -75.2862
lclavicle -3.18055e-015 -1.90833e-014
lhumerus 12.2326 -41.5675 53.6431
lradius 82.1905
lwrist 40.7308
lhand 0.997502 -23.8695
lfingers 7.12502
lthumb 26.5455 4.29047
rfemur 0 0 0
rtibia 0
rfoot 0 0
rtoes 0
lfemur -9.17712 -8.64463 -8.92907
ltibia 22.6532
lfoot -22.8861 15.9708
ltoes -54.8637
